<mxfile host="app.diagrams.net" agent="Mozilla/5.0 (Windows NT 10.0; Win64; x64) AppleWebKit/537.36 (KHTML, like Gecko) Chrome/130.0.0.0 Safari/537.36" version="24.8.4">
  <diagram name="Page-1" id="evVKdnV0RKwtL89EGBOa">
    <mxGraphModel dx="2156" dy="2423" grid="1" gridSize="10" guides="1" tooltips="1" connect="1" arrows="1" fold="1" page="1" pageScale="1" pageWidth="850" pageHeight="1100" math="0" shadow="0">
      <root>
        <mxCell id="0" />
        <mxCell id="1" parent="0" />
        <mxCell id="K4xo6NbHVVqP134mh9-v-43" value="&lt;span style=&quot;font-weight: normal;&quot;&gt;Ejercicio 4&lt;/span&gt;&lt;div&gt;&lt;span style=&quot;font-weight: normal;&quot;&gt;&lt;br&gt; Equipo (codigoE, nombreE, descripcionE)&lt;br&gt; Integrante (DNI, nombre, apellido, ciudad, email, telefono, codigoE(fk))&lt;br&gt; Laguna (nroLaguna, nombreL, ubicación, extension, descripción)&lt;br&gt; TorneoPesca (codTorneo, fecha, hora, nroLaguna(fk), descripcion)&lt;br&gt; Inscripcion (codTorneo(fk),codigoE(fk), asistio, gano) &lt;font color=&quot;#4d4d4d&quot;&gt;// asistio y gano son true/false&lt;/font&gt;&lt;/span&gt;&lt;/div&gt;" style="text;whiteSpace=wrap;html=1;fontStyle=1;fillColor=#f5f5f5;strokeColor=#666666;fontColor=#333333;align=left;fontFamily=Comic Sans MS;" vertex="1" parent="1">
          <mxGeometry x="3225" y="680" width="1200" height="130" as="geometry" />
        </mxCell>
        <mxCell id="K4xo6NbHVVqP134mh9-v-44" value="&lt;b&gt;&amp;nbsp;1. Listar DNI, nombre, apellido y email de integrantes que sean de la ciudad ‘La Plata’ y estén inscriptos en torneos que se disputaron durante 2019.&lt;/b&gt;" style="text;whiteSpace=wrap;html=1;fillColor=#f5f5f5;fontColor=#333333;strokeColor=#666666;" vertex="1" parent="1">
          <mxGeometry x="3225" y="840" width="1200" height="40" as="geometry" />
        </mxCell>
        <mxCell id="K4xo6NbHVVqP134mh9-v-45" value="&lt;b&gt;&amp;nbsp;3. Listar nombre, ubicación, extensión y descripción de lagunas que hayan tenido torneos durante 2019 y no hayan tenido torneos durante 2020.&lt;/b&gt;" style="text;whiteSpace=wrap;html=1;fillColor=#f5f5f5;fontColor=#333333;strokeColor=#666666;" vertex="1" parent="1">
          <mxGeometry x="3225" y="1160" width="1200" height="40" as="geometry" />
        </mxCell>
        <mxCell id="K4xo6NbHVVqP134mh9-v-46" value="&lt;b&gt;&amp;nbsp;2. Reportar nombre y descripción de equipos que solo se hayan inscripto en torneos de 2019.&lt;/b&gt;" style="text;whiteSpace=wrap;html=1;fillColor=#f5f5f5;fontColor=#333333;strokeColor=#666666;" vertex="1" parent="1">
          <mxGeometry x="3225" y="960" width="1200" height="40" as="geometry" />
        </mxCell>
        <mxCell id="K4xo6NbHVVqP134mh9-v-47" value="&lt;b&gt;&amp;nbsp;4. Listar para la laguna con nombre ‘laguna x’, nombre y descripción de equipos ganadores de torneos que se disputaron durante 2019 en la mencionada laguna.&lt;/b&gt;" style="text;whiteSpace=wrap;html=1;fillColor=#f5f5f5;fontColor=#333333;strokeColor=#666666;" vertex="1" parent="1">
          <mxGeometry x="3225" y="1360" width="1200" height="40" as="geometry" />
        </mxCell>
        <mxCell id="K4xo6NbHVVqP134mh9-v-48" value="&lt;b&gt;&amp;nbsp;5. Reportar nombre y descripción de equipos que tengan inscripciones en todas las lagunas.&lt;/b&gt;" style="text;whiteSpace=wrap;html=1;fillColor=#f5f5f5;fontColor=#333333;strokeColor=#666666;" vertex="1" parent="1">
          <mxGeometry x="3225" y="1577.5" width="1200" height="40" as="geometry" />
        </mxCell>
        <mxCell id="K4xo6NbHVVqP134mh9-v-49" value="&lt;b&gt;&amp;nbsp;6. Eliminar el equipo con código 10000.&lt;/b&gt;" style="text;whiteSpace=wrap;html=1;fillColor=#f5f5f5;fontColor=#333333;strokeColor=#666666;" vertex="1" parent="1">
          <mxGeometry x="3225" y="1700" width="1200" height="40" as="geometry" />
        </mxCell>
        <mxCell id="K4xo6NbHVVqP134mh9-v-50" value="&lt;b&gt;&amp;nbsp;7. Listar nombre, ubicación, extensión y descripción de lagunas que no tuvieron torneos.&lt;/b&gt;" style="text;whiteSpace=wrap;html=1;fillColor=#f5f5f5;fontColor=#333333;strokeColor=#666666;" vertex="1" parent="1">
          <mxGeometry x="3225" y="1880" width="1200" height="40" as="geometry" />
        </mxCell>
        <mxCell id="K4xo6NbHVVqP134mh9-v-51" value="&lt;b&gt;&amp;nbsp;8. Reportar nombre y descripción de equipos que tengan inscripciones a torneos a disputarse durante 2019, pero no tienen inscripciones a torneos de 2020.&lt;/b&gt;" style="text;whiteSpace=wrap;html=1;fillColor=#f5f5f5;fontColor=#333333;strokeColor=#666666;" vertex="1" parent="1">
          <mxGeometry x="3225" y="2040" width="1200" height="40" as="geometry" />
        </mxCell>
        <mxCell id="K4xo6NbHVVqP134mh9-v-52" value="&lt;b&gt;&amp;nbsp;9. Listar DNI, nombre, apellido, ciudad y email de integrantes que asistieron o ganaron algún torneo que se disputó en la laguna con nombre ‘Laguna Brava’.&lt;/b&gt;" style="text;whiteSpace=wrap;html=1;fillColor=#f5f5f5;fontColor=#333333;strokeColor=#666666;" vertex="1" parent="1">
          <mxGeometry x="3225" y="2235" width="1200" height="40" as="geometry" />
        </mxCell>
        <mxCell id="K4xo6NbHVVqP134mh9-v-53" value="&lt;div style=&quot;&quot;&gt;&lt;font style=&quot;&quot; face=&quot;Comic Sans MS&quot;&gt;&lt;font style=&quot;font-size: 24px; background-color: initial;&quot;&gt;π&lt;/font&gt;&lt;font style=&quot;font-size: 18px; background-color: initial;&quot;&gt;&amp;nbsp;&lt;/font&gt;&lt;span style=&quot;background-color: initial; color: rgb(51, 51, 51);&quot;&gt;&lt;font style=&quot;font-size: 12px;&quot;&gt;DNI, nombre, apellido, email&lt;/font&gt;&lt;span style=&quot;font-size: 18px;&quot;&gt;&amp;nbsp;&lt;/span&gt;&lt;/span&gt;&lt;font style=&quot;font-size: 18px; background-color: initial;&quot;&gt;(&lt;font style=&quot;font-size: 24px;&quot;&gt;σ&lt;/font&gt;&lt;span style=&quot;font-size: 12px;&quot;&gt;&amp;nbsp;(&lt;/span&gt;&lt;span style=&quot;color: rgb(51, 51, 51); font-size: 12px;&quot;&gt;ciudad = &quot;La Plata&quot;) and&amp;nbsp;&lt;/span&gt;&lt;/font&gt;&lt;/font&gt;&lt;font style=&quot;background-color: initial;&quot; face=&quot;Comic Sans MS&quot;&gt;&lt;font style=&quot;background-color: initial; font-size: 18px;&quot;&gt;&lt;span style=&quot;font-size: 12px;&quot;&gt;(&lt;/span&gt;&lt;span style=&quot;color: rgb(51, 51, 51); font-size: 12px;&quot;&gt;fecha &amp;gt;= &quot;01/01/2019&quot;) and&lt;/span&gt;&lt;/font&gt;&lt;/font&gt;&amp;nbsp;&lt;font style=&quot;background-color: initial;&quot; face=&quot;Comic Sans MS&quot;&gt;&lt;font style=&quot;background-color: initial; font-size: 18px;&quot;&gt;&lt;span style=&quot;color: rgb(51, 51, 51); font-size: 12px;&quot;&gt;(&lt;/span&gt;&lt;/font&gt;&lt;/font&gt;&lt;span style=&quot;background-color: initial; color: rgb(51, 51, 51);&quot;&gt;fecha &amp;lt;= &quot;31/12/2019&quot;)&lt;/span&gt;&lt;font style=&quot;background-color: initial;&quot; face=&quot;Comic Sans MS&quot;&gt;&lt;font style=&quot;background-color: initial; font-size: 18px;&quot;&gt;&lt;span style=&quot;color: rgb(51, 51, 51); font-size: 12px;&quot;&gt;&amp;nbsp;&lt;/span&gt;&lt;/font&gt;&lt;/font&gt;&lt;font style=&quot;background-color: initial;&quot; face=&quot;Comic Sans MS&quot;&gt;&lt;font style=&quot;font-size: 18px; background-color: initial;&quot;&gt;( Integrante |x| Equipo |x| Instripcion |x| TorneoPesca&amp;nbsp;&lt;/font&gt;&lt;/font&gt;&lt;span style=&quot;background-color: initial; font-size: 18px;&quot;&gt;)&lt;/span&gt;&lt;span style=&quot;background-color: initial; font-size: 18px;&quot;&gt;)&lt;/span&gt;&lt;/div&gt;" style="text;whiteSpace=wrap;html=1;verticalAlign=middle;fontFamily=Comic Sans MS;" vertex="1" parent="1">
          <mxGeometry x="3225" y="880" width="1200" height="40" as="geometry" />
        </mxCell>
        <mxCell id="K4xo6NbHVVqP134mh9-v-54" value="&lt;div style=&quot;&quot;&gt;&lt;font style=&quot;background-color: initial; font-size: 18px;&quot;&gt;equipos_fuera_2019&amp;nbsp;&lt;/font&gt;&lt;font style=&quot;background-color: initial; font-size: 20px;&quot;&gt;&amp;lt;&lt;font style=&quot;font-size: 16px;&quot;&gt;==&lt;/font&gt;&lt;/font&gt;&lt;span style=&quot;background-color: initial; font-size: 18px;&quot;&gt;&amp;nbsp;&lt;/span&gt;&lt;font style=&quot;background-color: initial; font-size: 24px;&quot;&gt;π&lt;/font&gt;&lt;font style=&quot;background-color: initial; font-size: 18px;&quot;&gt;&amp;nbsp;&lt;/font&gt;&lt;span style=&quot;background-color: initial; color: rgb(51, 51, 51);&quot;&gt;nombreE, descripcionE&amp;nbsp;&lt;/span&gt;&lt;span style=&quot;font-size: 18px; background-color: initial;&quot;&gt;(&lt;/span&gt;&lt;font style=&quot;background-color: initial;&quot; face=&quot;Comic Sans MS&quot;&gt;&lt;font style=&quot;font-size: 18px; background-color: initial;&quot;&gt;&lt;font style=&quot;font-size: 24px;&quot;&gt;σ&lt;/font&gt;&lt;span style=&quot;color: rgb(51, 51, 51); font-size: 12px;&quot;&gt;&amp;nbsp;&lt;/span&gt;&lt;/font&gt;&lt;/font&gt;&lt;font style=&quot;background-color: initial;&quot; face=&quot;Comic Sans MS&quot;&gt;&lt;font style=&quot;background-color: initial; font-size: 18px;&quot;&gt;&lt;span style=&quot;font-size: 12px;&quot;&gt;(&lt;/span&gt;&lt;span style=&quot;color: rgb(51, 51, 51); font-size: 12px;&quot;&gt;fecha &amp;lt; &quot;01/01/2019&quot;)&amp;nbsp;&lt;/span&gt;&lt;/font&gt;&lt;/font&gt;&lt;span style=&quot;background-color: initial;&quot;&gt;or&amp;nbsp;&lt;/span&gt;&lt;font style=&quot;background-color: initial;&quot; face=&quot;Comic Sans MS&quot;&gt;&lt;font style=&quot;background-color: initial; font-size: 18px;&quot;&gt;&lt;span style=&quot;color: rgb(51, 51, 51); font-size: 12px;&quot;&gt;(&lt;/span&gt;&lt;/font&gt;&lt;/font&gt;&lt;span style=&quot;background-color: initial; color: rgb(51, 51, 51);&quot;&gt;fecha &amp;gt; &quot;31/12/2019&quot;)&lt;/span&gt;&lt;font style=&quot;background-color: initial;&quot; face=&quot;Comic Sans MS&quot;&gt;&lt;font style=&quot;background-color: initial; font-size: 18px;&quot;&gt;&lt;span style=&quot;color: rgb(51, 51, 51); font-size: 12px;&quot;&gt;&amp;nbsp;&lt;/span&gt;&lt;/font&gt;&lt;/font&gt;&lt;font style=&quot;background-color: initial;&quot; face=&quot;Comic Sans MS&quot;&gt;&lt;font style=&quot;font-size: 18px; background-color: initial;&quot;&gt;(&amp;nbsp;&lt;/font&gt;&lt;/font&gt;&lt;span style=&quot;font-size: 18px; background-color: initial;&quot;&gt;Equipo |x| Instripcion |x|&amp;nbsp;&lt;/span&gt;&lt;font style=&quot;background-color: initial;&quot; face=&quot;Comic Sans MS&quot;&gt;&lt;font style=&quot;font-size: 18px; background-color: initial;&quot;&gt;TorneoPesca&amp;nbsp;&lt;/font&gt;&lt;/font&gt;&lt;span style=&quot;background-color: initial; font-size: 18px;&quot;&gt;)&lt;/span&gt;&lt;span style=&quot;background-color: initial; font-size: 18px;&quot;&gt;)&lt;/span&gt;&lt;/div&gt;&lt;div&gt;&lt;div&gt;&lt;span style=&quot;font-size: 18px; background-color: initial;&quot;&gt;equipos&lt;/span&gt;&lt;span style=&quot;background-color: initial; font-size: 18px;&quot;&gt;_2019&amp;nbsp;&lt;/span&gt;&lt;span style=&quot;background-color: initial; font-size: 20px;&quot;&gt;&amp;lt;&lt;/span&gt;&lt;font style=&quot;background-color: initial; font-size: 16px;&quot;&gt;==&amp;nbsp;&lt;/font&gt;&lt;font style=&quot;background-color: initial; font-size: 24px;&quot;&gt;π&lt;/font&gt;&lt;font style=&quot;background-color: initial; font-size: 18px;&quot;&gt;&amp;nbsp;&lt;/font&gt;&lt;span style=&quot;background-color: initial; color: rgb(51, 51, 51);&quot;&gt;nombreE, descripcionE&amp;nbsp;&lt;/span&gt;&lt;span style=&quot;font-size: 18px; background-color: initial;&quot;&gt;(&lt;/span&gt;&lt;font style=&quot;background-color: initial;&quot; face=&quot;Comic Sans MS&quot;&gt;&lt;font style=&quot;font-size: 18px; background-color: initial;&quot;&gt;&lt;font style=&quot;font-size: 24px;&quot;&gt;σ&lt;/font&gt;&lt;span style=&quot;color: rgb(51, 51, 51); font-size: 12px;&quot;&gt;&amp;nbsp;&lt;/span&gt;&lt;/font&gt;&lt;/font&gt;&lt;font style=&quot;background-color: initial;&quot; face=&quot;Comic Sans MS&quot;&gt;&lt;font style=&quot;background-color: initial; font-size: 18px;&quot;&gt;&lt;span style=&quot;font-size: 12px;&quot;&gt;(&lt;/span&gt;&lt;span style=&quot;color: rgb(51, 51, 51); font-size: 12px;&quot;&gt;fecha &amp;gt;= &quot;01/01/2019&quot;)&amp;nbsp;&lt;/span&gt;&lt;/font&gt;&lt;/font&gt;&lt;span style=&quot;background-color: initial;&quot;&gt;and&amp;nbsp;&lt;/span&gt;&lt;font style=&quot;background-color: initial;&quot; face=&quot;Comic Sans MS&quot;&gt;&lt;font style=&quot;background-color: initial; font-size: 18px;&quot;&gt;&lt;span style=&quot;color: rgb(51, 51, 51); font-size: 12px;&quot;&gt;(&lt;/span&gt;&lt;/font&gt;&lt;/font&gt;&lt;span style=&quot;background-color: initial; color: rgb(51, 51, 51);&quot;&gt;fecha &amp;lt;= &quot;31/12/2019&quot;)&lt;/span&gt;&lt;font style=&quot;background-color: initial;&quot; face=&quot;Comic Sans MS&quot;&gt;&lt;font style=&quot;background-color: initial; font-size: 18px;&quot;&gt;&lt;span style=&quot;color: rgb(51, 51, 51); font-size: 12px;&quot;&gt;&amp;nbsp;&lt;/span&gt;&lt;/font&gt;&lt;/font&gt;&lt;font style=&quot;background-color: initial;&quot; face=&quot;Comic Sans MS&quot;&gt;&lt;font style=&quot;font-size: 18px; background-color: initial;&quot;&gt;(&amp;nbsp;&lt;/font&gt;&lt;/font&gt;&lt;span style=&quot;background-color: initial; font-size: 18px;&quot;&gt;Equipo |x| Instripcion |x|&amp;nbsp;&lt;/span&gt;&lt;font style=&quot;background-color: initial;&quot; face=&quot;Comic Sans MS&quot;&gt;&lt;font style=&quot;font-size: 18px; background-color: initial;&quot;&gt;TorneoPesca&amp;nbsp;&lt;/font&gt;&lt;/font&gt;&lt;span style=&quot;background-color: initial; font-size: 18px;&quot;&gt;)&lt;/span&gt;&lt;span style=&quot;background-color: initial; font-size: 16px;&quot;&gt;)&lt;/span&gt;&lt;/div&gt;&lt;/div&gt;&lt;div style=&quot;&quot;&gt;&lt;font style=&quot;background-color: initial;&quot; face=&quot;Comic Sans MS&quot;&gt;&lt;font style=&quot;font-size: 24px; background-color: initial;&quot;&gt;π&lt;/font&gt;&lt;font style=&quot;font-size: 18px; background-color: initial;&quot;&gt;&amp;nbsp;&lt;/font&gt;&lt;span style=&quot;background-color: initial; color: rgb(51, 51, 51);&quot;&gt;nombreE, descripcionE&lt;span style=&quot;font-size: 18px;&quot;&gt;&amp;nbsp;&lt;/span&gt;&lt;/span&gt;&lt;/font&gt;&lt;font style=&quot;background-color: initial;&quot; face=&quot;Comic Sans MS&quot;&gt;&lt;font style=&quot;font-size: 18px; background-color: initial;&quot;&gt;(&amp;nbsp;&lt;/font&gt;&lt;/font&gt;&lt;span style=&quot;background-color: initial; font-size: 18px;&quot;&gt;equipos&lt;/span&gt;&lt;span style=&quot;background-color: initial; font-size: 18px;&quot;&gt;_2019 -&lt;/span&gt;&lt;font style=&quot;background-color: initial;&quot; face=&quot;Comic Sans MS&quot;&gt;&lt;font style=&quot;font-size: 18px; background-color: initial;&quot;&gt;&amp;nbsp;&lt;/font&gt;&lt;/font&gt;&lt;span style=&quot;font-size: 18px;&quot;&gt;equipos_fuera_2019&amp;nbsp;&lt;/span&gt;&lt;span style=&quot;background-color: initial; font-size: 18px;&quot;&gt;)&lt;/span&gt;&lt;/div&gt;" style="text;whiteSpace=wrap;html=1;verticalAlign=middle;fontFamily=Comic Sans MS;" vertex="1" parent="1">
          <mxGeometry x="3225" y="1000" width="1200" height="120" as="geometry" />
        </mxCell>
        <mxCell id="K4xo6NbHVVqP134mh9-v-55" value="&lt;div style=&quot;&quot;&gt;&lt;span style=&quot;background-color: initial; font-size: 18px;&quot;&gt;torneo_2019&amp;nbsp;&lt;/span&gt;&lt;span style=&quot;background-color: initial; font-size: 20px;&quot;&gt;&amp;lt;&lt;/span&gt;&lt;font style=&quot;background-color: initial; font-size: 16px;&quot;&gt;==&amp;nbsp;&lt;/font&gt;&lt;font style=&quot;background-color: initial;&quot; face=&quot;Comic Sans MS&quot;&gt;&lt;font style=&quot;font-size: 18px; background-color: initial;&quot;&gt;&lt;font style=&quot;font-size: 24px;&quot;&gt;σ&lt;/font&gt;&lt;span style=&quot;color: rgb(51, 51, 51); font-size: 12px;&quot;&gt;&amp;nbsp;&lt;/span&gt;&lt;/font&gt;&lt;/font&gt;&lt;font style=&quot;background-color: initial;&quot; face=&quot;Comic Sans MS&quot;&gt;&lt;font style=&quot;background-color: initial; font-size: 18px;&quot;&gt;&lt;span style=&quot;font-size: 12px;&quot;&gt;(&lt;/span&gt;&lt;span style=&quot;color: rgb(51, 51, 51); font-size: 12px;&quot;&gt;fecha &amp;gt;= &quot;01/01/2019&quot;) and&amp;nbsp;&lt;/span&gt;&lt;/font&gt;&lt;/font&gt;&lt;font style=&quot;background-color: initial;&quot; face=&quot;Comic Sans MS&quot;&gt;&lt;font style=&quot;background-color: initial; font-size: 18px;&quot;&gt;&lt;span style=&quot;color: rgb(51, 51, 51); font-size: 12px;&quot;&gt;(&lt;/span&gt;&lt;/font&gt;&lt;/font&gt;&lt;span style=&quot;background-color: initial; color: rgb(51, 51, 51);&quot;&gt;fecha &amp;lt;= &quot;31/12/&lt;/span&gt;&lt;span style=&quot;background-color: initial; color: rgb(51, 51, 51);&quot;&gt;2019&lt;/span&gt;&lt;span style=&quot;background-color: initial; color: rgb(51, 51, 51);&quot;&gt;&quot;)&lt;/span&gt;&lt;font style=&quot;background-color: initial;&quot; face=&quot;Comic Sans MS&quot;&gt;&lt;font style=&quot;background-color: initial; font-size: 18px;&quot;&gt;&lt;span style=&quot;color: rgb(51, 51, 51); font-size: 12px;&quot;&gt;&amp;nbsp;&lt;/span&gt;&lt;/font&gt;&lt;/font&gt;&lt;font style=&quot;background-color: initial;&quot; face=&quot;Comic Sans MS&quot;&gt;&lt;font style=&quot;font-size: 18px; background-color: initial;&quot;&gt;(&amp;nbsp;&lt;/font&gt;&lt;/font&gt;&lt;font style=&quot;background-color: initial;&quot; face=&quot;Comic Sans MS&quot;&gt;&lt;font style=&quot;font-size: 18px; background-color: initial;&quot;&gt;TorneoPesca&amp;nbsp;&lt;/font&gt;&lt;/font&gt;&lt;span style=&quot;background-color: initial; font-size: 18px;&quot;&gt;)&lt;/span&gt;&lt;/div&gt;&lt;div&gt;&lt;span style=&quot;font-size: 18px; background-color: initial;&quot;&gt;torneo_2020&amp;nbsp;&lt;/span&gt;&lt;span style=&quot;background-color: initial; font-size: 20px;&quot;&gt;&amp;lt;&lt;/span&gt;&lt;font style=&quot;background-color: initial; font-size: 16px;&quot;&gt;==&amp;nbsp;&lt;/font&gt;&lt;font style=&quot;background-color: initial;&quot; face=&quot;Comic Sans MS&quot;&gt;&lt;font style=&quot;font-size: 18px; background-color: initial;&quot;&gt;&lt;font style=&quot;font-size: 24px;&quot;&gt;σ&lt;/font&gt;&lt;span style=&quot;color: rgb(51, 51, 51); font-size: 12px;&quot;&gt;&amp;nbsp;&lt;/span&gt;&lt;/font&gt;&lt;/font&gt;&lt;font style=&quot;background-color: initial;&quot; face=&quot;Comic Sans MS&quot;&gt;&lt;font style=&quot;background-color: initial; font-size: 18px;&quot;&gt;&lt;span style=&quot;font-size: 12px;&quot;&gt;(&lt;/span&gt;&lt;span style=&quot;color: rgb(51, 51, 51); font-size: 12px;&quot;&gt;fecha &amp;gt;= &quot;01/01/2020&quot;) and&amp;nbsp;&lt;/span&gt;&lt;/font&gt;&lt;/font&gt;&lt;font style=&quot;background-color: initial;&quot; face=&quot;Comic Sans MS&quot;&gt;&lt;font style=&quot;background-color: initial; font-size: 18px;&quot;&gt;&lt;span style=&quot;color: rgb(51, 51, 51); font-size: 12px;&quot;&gt;(&lt;/span&gt;&lt;/font&gt;&lt;/font&gt;&lt;span style=&quot;background-color: initial; color: rgb(51, 51, 51);&quot;&gt;fecha &amp;lt;= &quot;31/12/2020&quot;)&lt;/span&gt;&lt;font style=&quot;background-color: initial;&quot; face=&quot;Comic Sans MS&quot;&gt;&lt;font style=&quot;background-color: initial; font-size: 18px;&quot;&gt;&lt;span style=&quot;color: rgb(51, 51, 51); font-size: 12px;&quot;&gt;&amp;nbsp;&lt;/span&gt;&lt;/font&gt;&lt;/font&gt;&lt;font style=&quot;background-color: initial;&quot; face=&quot;Comic Sans MS&quot;&gt;&lt;font style=&quot;font-size: 18px; background-color: initial;&quot;&gt;(&lt;/font&gt;&lt;/font&gt;&lt;font style=&quot;background-color: initial;&quot; face=&quot;Comic Sans MS&quot;&gt;&lt;font style=&quot;font-size: 18px; background-color: initial;&quot;&gt;TorneoPesca&amp;nbsp;&lt;/font&gt;&lt;/font&gt;&lt;span style=&quot;background-color: initial; font-size: 18px;&quot;&gt;)&lt;/span&gt;&lt;/div&gt;&lt;div style=&quot;&quot;&gt;&lt;font style=&quot;background-color: initial;&quot; face=&quot;Comic Sans MS&quot;&gt;&lt;font style=&quot;font-size: 24px; background-color: initial;&quot;&gt;π&lt;/font&gt;&lt;font style=&quot;font-size: 18px; background-color: initial;&quot;&gt;&amp;nbsp;&lt;/font&gt;&lt;/font&gt;&lt;span style=&quot;color: rgb(51, 51, 51);&quot;&gt;nombreL, ubicación, extension, descripción&lt;/span&gt;&lt;font style=&quot;background-color: initial;&quot; face=&quot;Comic Sans MS&quot;&gt;&lt;span style=&quot;background-color: initial; color: rgb(51, 51, 51);&quot;&gt;&lt;span style=&quot;font-size: 18px;&quot;&gt;&amp;nbsp;&lt;/span&gt;&lt;/span&gt;&lt;/font&gt;&lt;font style=&quot;background-color: initial;&quot; face=&quot;Comic Sans MS&quot;&gt;&lt;font style=&quot;font-size: 18px; background-color: initial;&quot;&gt;( Laguna |x| (&amp;nbsp;&lt;/font&gt;&lt;/font&gt;&lt;span style=&quot;font-size: 18px;&quot;&gt;torneo_2019&amp;nbsp;&lt;/span&gt;&lt;span style=&quot;font-size: 18px; background-color: initial;&quot;&gt;-&amp;nbsp;&lt;/span&gt;&lt;span style=&quot;font-size: 18px;&quot;&gt;torneo_2020&amp;nbsp;&lt;/span&gt;&lt;font style=&quot;background-color: initial;&quot; face=&quot;Comic Sans MS&quot;&gt;&lt;font style=&quot;font-size: 18px; background-color: initial;&quot;&gt;)&lt;/font&gt;&lt;/font&gt;&lt;font style=&quot;background-color: initial;&quot; face=&quot;Comic Sans MS&quot;&gt;&lt;font style=&quot;font-size: 18px; background-color: initial;&quot;&gt;&amp;nbsp;&lt;/font&gt;&lt;/font&gt;&lt;span style=&quot;background-color: initial; font-size: 18px;&quot;&gt;)&lt;/span&gt;&lt;/div&gt;" style="text;whiteSpace=wrap;html=1;verticalAlign=middle;fontFamily=Comic Sans MS;" vertex="1" parent="1">
          <mxGeometry x="3225" y="1200" width="1200" height="120" as="geometry" />
        </mxCell>
        <mxCell id="K4xo6NbHVVqP134mh9-v-56" value="&lt;div style=&quot;&quot;&gt;&lt;font style=&quot;background-color: initial; font-size: 18px;&quot;&gt;equipo_ganador&amp;nbsp;&lt;span style=&quot;background-color: initial;&quot;&gt;&lt;/span&gt;&lt;/font&gt;&lt;span style=&quot;background-color: initial; font-size: 20px;&quot;&gt;&amp;lt;&lt;/span&gt;&lt;font style=&quot;background-color: initial; font-size: 16px;&quot;&gt;==&lt;/font&gt;&lt;span style=&quot;background-color: initial; color: rgb(51, 51, 51);&quot;&gt;&amp;nbsp;&lt;/span&gt;&lt;span style=&quot;font-size: 24px; background-color: initial;&quot;&gt;π&lt;/span&gt;&lt;span style=&quot;background-color: initial;&quot;&gt;&lt;font style=&quot;font-size: 19px;&quot;&gt;&amp;nbsp;&lt;/font&gt;&lt;/span&gt;&lt;font style=&quot;background-color: initial;&quot; face=&quot;Comic Sans MS&quot;&gt;&lt;font style=&quot;font-size: 18px; background-color: initial;&quot;&gt;&lt;span style=&quot;color: rgb(51, 51, 51); font-size: 12px;&quot;&gt;codigoE&lt;/span&gt;&lt;/font&gt;&lt;/font&gt;&lt;font style=&quot;background-color: initial;&quot; face=&quot;Comic Sans MS&quot;&gt;&lt;font style=&quot;background-color: initial; font-size: 18px;&quot;&gt;&lt;span style=&quot;color: rgb(51, 51, 51); font-size: 12px;&quot;&gt;&amp;nbsp;&lt;/span&gt;&lt;/font&gt;&lt;/font&gt;&lt;span style=&quot;font-size: 18px; background-color: initial;&quot;&gt;(&lt;/span&gt;&lt;font style=&quot;background-color: initial;&quot; face=&quot;Comic Sans MS&quot;&gt;&lt;font style=&quot;font-size: 18px; background-color: initial;&quot;&gt;&lt;font style=&quot;font-size: 24px;&quot;&gt;σ&lt;/font&gt;&lt;span style=&quot;color: rgb(51, 51, 51); font-size: 12px;&quot;&gt;&amp;nbsp;gano&lt;/span&gt;&lt;/font&gt;&lt;/font&gt;&lt;font style=&quot;background-color: initial;&quot; face=&quot;Comic Sans MS&quot;&gt;&lt;font style=&quot;background-color: initial; font-size: 18px;&quot;&gt;&lt;span style=&quot;color: rgb(51, 51, 51); font-size: 12px;&quot;&gt;&amp;nbsp;= true&amp;nbsp;&lt;/span&gt;&lt;/font&gt;&lt;/font&gt;&lt;font style=&quot;background-color: initial;&quot; face=&quot;Comic Sans MS&quot;&gt;&lt;font style=&quot;font-size: 18px; background-color: initial;&quot;&gt;(&amp;nbsp;&lt;/font&gt;&lt;/font&gt;&lt;span style=&quot;background-color: initial; font-size: 18px;&quot;&gt;Equipo |x|&amp;nbsp;&lt;/span&gt;&lt;span style=&quot;background-color: initial; font-size: 18px;&quot;&gt;Instripcion&lt;/span&gt;&lt;span style=&quot;background-color: initial; font-size: 18px;&quot;&gt;&amp;nbsp;&lt;/span&gt;&lt;span style=&quot;font-size: 18px; background-color: initial;&quot;&gt;)&lt;/span&gt;&lt;span style=&quot;font-size: 18px; background-color: initial;&quot;&gt;)&lt;/span&gt;&lt;/div&gt;&lt;div style=&quot;&quot;&gt;&lt;div&gt;&lt;span style=&quot;background-color: initial; font-size: 18px;&quot;&gt;torneos_2019&amp;nbsp;&lt;/span&gt;&lt;span style=&quot;background-color: initial; font-size: 20px;&quot;&gt;&amp;lt;&lt;/span&gt;&lt;font style=&quot;background-color: initial; font-size: 16px;&quot;&gt;==&amp;nbsp;&lt;/font&gt;&lt;font style=&quot;background-color: initial;&quot; face=&quot;Comic Sans MS&quot;&gt;&lt;font style=&quot;font-size: 18px; background-color: initial;&quot;&gt;&lt;font style=&quot;font-size: 24px;&quot;&gt;σ&lt;/font&gt;&lt;span style=&quot;color: rgb(51, 51, 51); font-size: 12px;&quot;&gt;&amp;nbsp;&lt;/span&gt;&lt;/font&gt;&lt;/font&gt;&lt;font style=&quot;background-color: initial;&quot; face=&quot;Comic Sans MS&quot;&gt;&lt;font style=&quot;background-color: initial; font-size: 18px;&quot;&gt;&lt;span style=&quot;font-size: 12px;&quot;&gt;(&lt;/span&gt;&lt;span style=&quot;color: rgb(51, 51, 51); font-size: 12px;&quot;&gt;fecha &amp;gt;= &quot;01/01/2019&quot;)&amp;nbsp;&lt;/span&gt;&lt;/font&gt;&lt;/font&gt;&lt;span style=&quot;background-color: initial;&quot;&gt;and&amp;nbsp;&lt;/span&gt;&lt;font style=&quot;background-color: initial;&quot; face=&quot;Comic Sans MS&quot;&gt;&lt;font style=&quot;background-color: initial; font-size: 18px;&quot;&gt;&lt;span style=&quot;color: rgb(51, 51, 51); font-size: 12px;&quot;&gt;(&lt;/span&gt;&lt;/font&gt;&lt;/font&gt;&lt;span style=&quot;background-color: initial; color: rgb(51, 51, 51);&quot;&gt;fecha &amp;lt;= &quot;31/12/2019&quot;)&amp;nbsp;&lt;/span&gt;&lt;font style=&quot;background-color: initial;&quot; face=&quot;Comic Sans MS&quot;&gt;&lt;font style=&quot;font-size: 18px; background-color: initial;&quot;&gt;(&amp;nbsp;&lt;/font&gt;&lt;/font&gt;&lt;font style=&quot;background-color: initial;&quot; face=&quot;Comic Sans MS&quot;&gt;&lt;font style=&quot;font-size: 18px; background-color: initial;&quot;&gt;TorneoPesca&amp;nbsp;&lt;/font&gt;&lt;/font&gt;&lt;span style=&quot;background-color: initial; font-size: 18px;&quot;&gt;)&lt;/span&gt;&lt;/div&gt;&lt;/div&gt;&lt;div style=&quot;&quot;&gt;&lt;font style=&quot;background-color: initial; font-size: 18px;&quot;&gt;&lt;span style=&quot;background-color: initial;&quot;&gt;laguna_x&amp;nbsp;&lt;/span&gt;&amp;nbsp;&lt;/font&gt;&lt;font style=&quot;background-color: initial; font-size: 20px;&quot;&gt;&amp;lt;&lt;font style=&quot;font-size: 16px;&quot;&gt;==&lt;/font&gt;&lt;/font&gt;&lt;span style=&quot;background-color: initial; font-size: 18px;&quot;&gt;&amp;nbsp;&lt;/span&gt;&lt;font style=&quot;background-color: initial;&quot; face=&quot;Comic Sans MS&quot;&gt;&lt;font style=&quot;font-size: 18px; background-color: initial;&quot;&gt;&lt;font style=&quot;font-size: 24px;&quot;&gt;σ&lt;/font&gt;&lt;span style=&quot;color: rgb(51, 51, 51); font-size: 12px;&quot;&gt;&amp;nbsp;&lt;/span&gt;&lt;/font&gt;&lt;/font&gt;&lt;font style=&quot;background-color: initial;&quot; face=&quot;Comic Sans MS&quot;&gt;&lt;font style=&quot;background-color: initial; font-size: 18px;&quot;&gt;&lt;span style=&quot;color: rgb(51, 51, 51); font-size: 12px;&quot;&gt;nombreL = &quot;laguna x&quot;&lt;/span&gt;&lt;/font&gt;&lt;/font&gt;&lt;font style=&quot;background-color: initial;&quot; face=&quot;Comic Sans MS&quot;&gt;&lt;font style=&quot;background-color: initial; font-size: 18px;&quot;&gt;&lt;span style=&quot;color: rgb(51, 51, 51); font-size: 12px;&quot;&gt;&amp;nbsp;&lt;/span&gt;&lt;/font&gt;&lt;/font&gt;&lt;font style=&quot;background-color: initial;&quot; face=&quot;Comic Sans MS&quot;&gt;&lt;font style=&quot;font-size: 18px; background-color: initial;&quot;&gt;(&amp;nbsp;&lt;/font&gt;&lt;/font&gt;&lt;span style=&quot;font-size: 18px;&quot;&gt;Laguna&amp;nbsp;&lt;/span&gt;&lt;span style=&quot;background-color: initial; font-size: 18px;&quot;&gt;)&lt;/span&gt;&lt;/div&gt;&lt;div&gt;&lt;div&gt;&lt;font style=&quot;background-color: initial;&quot; face=&quot;Comic Sans MS&quot;&gt;&lt;font style=&quot;font-size: 24px; background-color: initial;&quot;&gt;π&lt;/font&gt;&lt;font style=&quot;font-size: 18px; background-color: initial;&quot;&gt;&amp;nbsp;&lt;/font&gt;&lt;span style=&quot;background-color: initial; color: rgb(51, 51, 51);&quot;&gt;nombreE, descripcionE&lt;span style=&quot;font-size: 18px;&quot;&gt;&amp;nbsp;&lt;/span&gt;&lt;/span&gt;&lt;/font&gt;&lt;font style=&quot;background-color: initial;&quot; face=&quot;Comic Sans MS&quot;&gt;&lt;font style=&quot;font-size: 18px; background-color: initial;&quot;&gt;( Equipo |x|&amp;nbsp;&lt;/font&gt;&lt;/font&gt;&lt;span style=&quot;background-color: initial; font-size: 18px;&quot;&gt;equipo_ganador&amp;nbsp;&lt;/span&gt;&lt;font style=&quot;background-color: initial;&quot; face=&quot;Comic Sans MS&quot;&gt;&lt;font style=&quot;font-size: 18px; background-color: initial;&quot;&gt;|x|&amp;nbsp;&lt;/font&gt;&lt;/font&gt;&lt;span style=&quot;background-color: initial; font-size: 18px;&quot;&gt;torneos_2019&amp;nbsp;&lt;/span&gt;&lt;span style=&quot;background-color: initial; font-size: 18px;&quot;&gt;|x|&amp;nbsp;&lt;/span&gt;&lt;span style=&quot;background-color: initial; font-size: 18px;&quot;&gt;laguna_x&amp;nbsp;&lt;/span&gt;&lt;span style=&quot;background-color: initial; font-size: 18px;&quot;&gt;)&lt;/span&gt;&lt;font style=&quot;background-color: initial;&quot; face=&quot;Comic Sans MS&quot;&gt;&lt;font style=&quot;font-size: 18px; background-color: initial;&quot;&gt;)&amp;nbsp;&lt;/font&gt;&lt;/font&gt;&lt;span style=&quot;background-color: initial; font-size: 18px;&quot;&gt;)&lt;/span&gt;&lt;/div&gt;&lt;/div&gt;" style="text;whiteSpace=wrap;html=1;verticalAlign=middle;fontFamily=Comic Sans MS;" vertex="1" parent="1">
          <mxGeometry x="3225" y="1400" width="1200" height="140" as="geometry" />
        </mxCell>
        <mxCell id="K4xo6NbHVVqP134mh9-v-57" value="&lt;div style=&quot;&quot;&gt;&lt;font style=&quot;background-color: initial;&quot; face=&quot;Comic Sans MS&quot;&gt;&lt;font style=&quot;font-size: 24px; background-color: initial;&quot;&gt;π&lt;/font&gt;&lt;font style=&quot;font-size: 18px; background-color: initial;&quot;&gt;&amp;nbsp;&lt;/font&gt;&lt;span style=&quot;background-color: initial; color: rgb(51, 51, 51);&quot;&gt;nombreE, descripcionE&lt;span style=&quot;font-size: 18px;&quot;&gt;&amp;nbsp;&lt;/span&gt;&lt;/span&gt;&lt;/font&gt;&lt;span style=&quot;font-size: 18px; background-color: initial;&quot;&gt;(&lt;/span&gt;&lt;font style=&quot;background-color: initial;&quot; face=&quot;Comic Sans MS&quot;&gt;&lt;font style=&quot;font-size: 18px; background-color: initial;&quot;&gt;( Equipo |x| I&lt;/font&gt;&lt;/font&gt;&lt;span style=&quot;background-color: initial; font-size: 18px;&quot;&gt;nscripcion |x|&amp;nbsp;&lt;/span&gt;&lt;span style=&quot;background-color: initial; font-size: 18px;&quot;&gt;TorneoPesca&amp;nbsp;&lt;/span&gt;&lt;span style=&quot;background-color: initial; font-size: 18px;&quot;&gt;|x| Laguna&amp;nbsp;&lt;/span&gt;&lt;span style=&quot;background-color: initial; font-size: 18px;&quot;&gt;)&lt;/span&gt;&lt;font style=&quot;background-color: initial;&quot; face=&quot;Comic Sans MS&quot;&gt;&lt;font style=&quot;font-size: 18px; background-color: initial;&quot;&gt;&amp;nbsp;%&amp;nbsp;&lt;/font&gt;&lt;/font&gt;&lt;span style=&quot;background-color: initial; font-size: 24px;&quot;&gt;π&amp;nbsp;&lt;/span&gt;&lt;span style=&quot;background-color: initial; color: rgb(51, 51, 51);&quot;&gt;nroLaguna&amp;nbsp;&lt;/span&gt;&lt;span style=&quot;background-color: initial; font-size: 18px;&quot;&gt;( Laguna&amp;nbsp;&lt;/span&gt;&lt;span style=&quot;background-color: initial; font-size: 18px;&quot;&gt;)&lt;/span&gt;&lt;span style=&quot;background-color: initial; font-size: 18px;&quot;&gt;)&lt;/span&gt;&lt;span style=&quot;background-color: initial; font-size: 18px;&quot;&gt;&amp;nbsp;&lt;/span&gt;&lt;/div&gt;" style="text;whiteSpace=wrap;html=1;verticalAlign=middle;fontFamily=Comic Sans MS;" vertex="1" parent="1">
          <mxGeometry x="3225" y="1620" width="1200" height="40" as="geometry" />
        </mxCell>
        <mxCell id="K4xo6NbHVVqP134mh9-v-58" value="&lt;div style=&quot;&quot;&gt;&lt;div&gt;&lt;span style=&quot;background-color: initial; font-size: 18px;&quot;&gt;Integrante&amp;nbsp;&lt;/span&gt;&lt;span style=&quot;background-color: initial; font-size: 20px;&quot;&gt;&amp;lt;&lt;/span&gt;&lt;font style=&quot;background-color: initial; font-size: 16px;&quot;&gt;==&lt;/font&gt;&lt;font style=&quot;background-color: initial;&quot; face=&quot;Comic Sans MS&quot;&gt;&lt;font style=&quot;font-size: 18px; background-color: initial;&quot;&gt;&amp;nbsp;&lt;/font&gt;&lt;/font&gt;&lt;span style=&quot;background-color: initial; font-size: 18px;&quot;&gt;Integrante&amp;nbsp;&lt;/span&gt;&lt;span style=&quot;background-color: initial; font-size: 18px;&quot;&gt;-&amp;nbsp;&lt;/span&gt;&lt;span style=&quot;background-color: initial; font-size: 18px;&quot;&gt;(&amp;nbsp;&lt;/span&gt;&lt;span style=&quot;background-color: initial; font-size: 24px;&quot;&gt;σ&amp;nbsp;&lt;/span&gt;&lt;span style=&quot;background-color: initial; color: rgb(51, 51, 51);&quot;&gt;codigoE = 10000&amp;nbsp;&amp;nbsp;&lt;/span&gt;&lt;span style=&quot;background-color: initial; font-size: 18px;&quot;&gt;(&lt;/span&gt;&lt;span style=&quot;background-color: initial; font-size: 18px;&quot;&gt;Integrante&lt;/span&gt;&lt;span style=&quot;background-color: initial; font-size: 18px;&quot;&gt;)&amp;nbsp;&lt;/span&gt;&lt;span style=&quot;background-color: initial; font-size: 18px;&quot;&gt;)&lt;/span&gt;&lt;/div&gt;&lt;div&gt;&lt;/div&gt;&lt;/div&gt;&lt;div style=&quot;&quot;&gt;&lt;span style=&quot;background-color: initial; font-size: 18px;&quot;&gt;Inscripcion&amp;nbsp;&lt;/span&gt;&lt;span style=&quot;background-color: initial; font-size: 20px;&quot;&gt;&amp;lt;&lt;/span&gt;&lt;font style=&quot;background-color: initial; font-size: 16px;&quot;&gt;==&lt;/font&gt;&lt;font style=&quot;background-color: initial;&quot; face=&quot;Comic Sans MS&quot;&gt;&lt;font style=&quot;font-size: 18px; background-color: initial;&quot;&gt;&amp;nbsp;&lt;/font&gt;&lt;/font&gt;&lt;span style=&quot;background-color: initial; font-size: 18px;&quot;&gt;Inscripcion&amp;nbsp;&lt;/span&gt;&lt;span style=&quot;background-color: initial; font-size: 18px;&quot;&gt;-&amp;nbsp;&lt;/span&gt;&lt;span style=&quot;background-color: initial; font-size: 18px;&quot;&gt;(&amp;nbsp;&lt;/span&gt;&lt;span style=&quot;background-color: initial; font-size: 24px;&quot;&gt;σ&amp;nbsp;&lt;/span&gt;&lt;span style=&quot;background-color: initial; color: rgb(51, 51, 51);&quot;&gt;codigoE = 10000&amp;nbsp;&amp;nbsp;&lt;/span&gt;&lt;span style=&quot;font-size: 18px; background-color: initial;&quot;&gt;(&lt;/span&gt;&lt;span style=&quot;background-color: initial; font-size: 18px;&quot;&gt;Inscripcion&lt;/span&gt;&lt;span style=&quot;background-color: initial; font-size: 18px;&quot;&gt;)&amp;nbsp;&lt;/span&gt;&lt;span style=&quot;background-color: initial; font-size: 18px;&quot;&gt;)&lt;/span&gt;&lt;/div&gt;&lt;div style=&quot;&quot;&gt;&lt;div&gt;&lt;font style=&quot;background-color: initial;&quot; face=&quot;Comic Sans MS&quot;&gt;&lt;font style=&quot;font-size: 18px; background-color: initial;&quot;&gt;Equipo&lt;/font&gt;&lt;/font&gt;&lt;span style=&quot;background-color: initial; font-size: 18px;&quot;&gt;&amp;nbsp;&lt;/span&gt;&lt;span style=&quot;background-color: initial; font-size: 20px;&quot;&gt;&amp;lt;&lt;/span&gt;&lt;font style=&quot;background-color: initial; font-size: 16px;&quot;&gt;==&lt;/font&gt;&lt;font style=&quot;background-color: initial;&quot; face=&quot;Comic Sans MS&quot;&gt;&lt;font style=&quot;font-size: 18px; background-color: initial;&quot;&gt;&amp;nbsp;&lt;/font&gt;&lt;/font&gt;&lt;font style=&quot;background-color: initial;&quot; face=&quot;Comic Sans MS&quot;&gt;&lt;font style=&quot;font-size: 18px; background-color: initial;&quot;&gt;Equipo&lt;/font&gt;&lt;/font&gt;&lt;span style=&quot;background-color: initial; font-size: 18px;&quot;&gt;&amp;nbsp;-&amp;nbsp;&lt;/span&gt;&lt;span style=&quot;font-size: 18px; background-color: initial;&quot;&gt;(&amp;nbsp;&lt;/span&gt;&lt;span style=&quot;background-color: initial; font-size: 24px;&quot;&gt;σ&amp;nbsp;&lt;/span&gt;&lt;span style=&quot;background-color: initial; color: rgb(51, 51, 51);&quot;&gt;codigoE = 10000&amp;nbsp;&lt;/span&gt;&lt;span style=&quot;background-color: initial; font-size: 18px;&quot;&gt;(&lt;/span&gt;&lt;font style=&quot;background-color: initial;&quot; face=&quot;Comic Sans MS&quot;&gt;&lt;font style=&quot;font-size: 18px; background-color: initial;&quot;&gt;Equipo&lt;/font&gt;&lt;/font&gt;&lt;span style=&quot;background-color: initial; font-size: 18px;&quot;&gt;)&amp;nbsp;&lt;/span&gt;&lt;span style=&quot;background-color: initial; font-size: 18px;&quot;&gt;)&lt;/span&gt;&lt;/div&gt;&lt;/div&gt;" style="text;whiteSpace=wrap;html=1;verticalAlign=middle;fontFamily=Comic Sans MS;" vertex="1" parent="1">
          <mxGeometry x="3225" y="1740" width="1200" height="100" as="geometry" />
        </mxCell>
        <mxCell id="K4xo6NbHVVqP134mh9-v-59" value="&lt;div style=&quot;&quot;&gt;&lt;font style=&quot;background-color: initial; font-size: 24px;&quot;&gt;&lt;span style=&quot;background-color: initial; font-size: 18px;&quot;&gt;lagunas_con_torneo&amp;nbsp;&lt;/span&gt;&lt;span style=&quot;background-color: initial; font-size: 20px;&quot;&gt;&amp;lt;&lt;/span&gt;&lt;font style=&quot;background-color: initial; font-size: 16px;&quot;&gt;==&amp;nbsp;&lt;/font&gt;π&lt;/font&gt;&lt;font style=&quot;background-color: initial; font-size: 18px;&quot;&gt;&amp;nbsp;&lt;/font&gt;&lt;span style=&quot;background-color: initial; color: rgb(51, 51, 51);&quot;&gt;nombreL, ubicación, extension, descripción&amp;nbsp;&lt;/span&gt;&lt;span style=&quot;background-color: initial; font-size: 18px;&quot;&gt;( Laguna&lt;/span&gt;&lt;span style=&quot;background-color: initial; font-size: 18px;&quot;&gt;&amp;nbsp;|x|&amp;nbsp;&lt;/span&gt;&lt;font style=&quot;background-color: initial;&quot; face=&quot;Comic Sans MS&quot;&gt;&lt;font style=&quot;font-size: 18px; background-color: initial;&quot;&gt;TorneoPesca&lt;/font&gt;&lt;/font&gt;&lt;span style=&quot;background-color: initial; font-size: 18px;&quot;&gt;&amp;nbsp;&lt;/span&gt;&lt;span style=&quot;background-color: initial; font-size: 18px;&quot;&gt;)&lt;/span&gt;&lt;/div&gt;&lt;div style=&quot;&quot;&gt;&lt;font style=&quot;background-color: initial; font-size: 24px;&quot;&gt;π&lt;/font&gt;&lt;font style=&quot;background-color: initial; font-size: 18px;&quot;&gt;&amp;nbsp;&lt;/font&gt;&lt;span style=&quot;background-color: initial; color: rgb(51, 51, 51);&quot;&gt;nombreL, ubicación, extension, descripción&amp;nbsp;&lt;/span&gt;&lt;span style=&quot;background-color: initial; font-size: 18px;&quot;&gt;&lt;/span&gt;&lt;span style=&quot;background-color: initial; font-size: 18px;&quot;&gt;( Laguna&lt;/span&gt;&lt;span style=&quot;background-color: initial; font-size: 18px;&quot;&gt;&amp;nbsp;-&amp;nbsp;&lt;/span&gt;&lt;span style=&quot;font-size: 18px;&quot;&gt;lagunas_con_torneo&amp;nbsp;&lt;/span&gt;&lt;span style=&quot;background-color: initial; font-size: 18px;&quot;&gt;)&lt;/span&gt;&lt;/div&gt;" style="text;whiteSpace=wrap;html=1;verticalAlign=middle;fontFamily=Comic Sans MS;" vertex="1" parent="1">
          <mxGeometry x="3225" y="1920" width="1200" height="80" as="geometry" />
        </mxCell>
        <mxCell id="K4xo6NbHVVqP134mh9-v-60" value="&lt;div style=&quot;&quot;&gt;&lt;div&gt;&lt;span style=&quot;background-color: initial; font-size: 18px;&quot;&gt;equipos_2019&amp;nbsp;&lt;/span&gt;&lt;span style=&quot;background-color: initial; font-size: 20px;&quot;&gt;&amp;lt;&lt;/span&gt;&lt;font style=&quot;background-color: initial; font-size: 16px;&quot;&gt;==&amp;nbsp;&lt;/font&gt;&lt;font style=&quot;background-color: initial;&quot; face=&quot;Comic Sans MS&quot;&gt;&lt;font style=&quot;font-size: 18px; background-color: initial;&quot;&gt;&lt;font style=&quot;font-size: 24px;&quot;&gt;σ&lt;/font&gt;&lt;span style=&quot;color: rgb(51, 51, 51); font-size: 12px;&quot;&gt;&amp;nbsp;&lt;/span&gt;&lt;/font&gt;&lt;/font&gt;&lt;font style=&quot;background-color: initial;&quot; face=&quot;Comic Sans MS&quot;&gt;&lt;font style=&quot;background-color: initial; font-size: 18px;&quot;&gt;&lt;span style=&quot;font-size: 12px;&quot;&gt;(&lt;/span&gt;&lt;span style=&quot;color: rgb(51, 51, 51); font-size: 12px;&quot;&gt;fecha &amp;gt;= &quot;01/01/2019&quot;) and&amp;nbsp;&lt;/span&gt;&lt;/font&gt;&lt;/font&gt;&lt;font style=&quot;background-color: initial;&quot; face=&quot;Comic Sans MS&quot;&gt;&lt;font style=&quot;background-color: initial; font-size: 18px;&quot;&gt;&lt;span style=&quot;color: rgb(51, 51, 51); font-size: 12px;&quot;&gt;(&lt;/span&gt;&lt;/font&gt;&lt;/font&gt;&lt;span style=&quot;background-color: initial; color: rgb(51, 51, 51);&quot;&gt;fecha &amp;lt;= &quot;31/12/&lt;/span&gt;&lt;span style=&quot;background-color: initial; color: rgb(51, 51, 51);&quot;&gt;2019&lt;/span&gt;&lt;span style=&quot;background-color: initial; color: rgb(51, 51, 51);&quot;&gt;&quot;)&lt;/span&gt;&lt;font style=&quot;background-color: initial;&quot; face=&quot;Comic Sans MS&quot;&gt;&lt;font style=&quot;background-color: initial; font-size: 18px;&quot;&gt;&lt;span style=&quot;color: rgb(51, 51, 51); font-size: 12px;&quot;&gt;&amp;nbsp;&lt;/span&gt;&lt;/font&gt;&lt;/font&gt;&lt;font style=&quot;background-color: initial;&quot; face=&quot;Comic Sans MS&quot;&gt;&lt;font style=&quot;font-size: 18px; background-color: initial;&quot;&gt;(&amp;nbsp;&lt;/font&gt;&lt;/font&gt;&lt;span style=&quot;background-color: initial; font-size: 18px;&quot;&gt;Equipo |x|&amp;nbsp;&lt;/span&gt;&lt;span style=&quot;font-size: 18px; background-color: initial;&quot;&gt;Inscripcion&amp;nbsp;&lt;/span&gt;&lt;span style=&quot;background-color: initial; font-size: 18px;&quot;&gt;|x|&amp;nbsp;&lt;/span&gt;&lt;font style=&quot;background-color: initial;&quot;&gt;&lt;font style=&quot;font-size: 18px; background-color: initial;&quot;&gt;TorneoPesca&lt;/font&gt;&lt;/font&gt;&lt;span style=&quot;background-color: initial; font-size: 18px;&quot;&gt;&amp;nbsp;&lt;/span&gt;&lt;span style=&quot;background-color: initial; font-size: 18px;&quot;&gt;)&lt;/span&gt;&lt;/div&gt;&lt;div&gt;&lt;span style=&quot;font-size: 18px; background-color: initial;&quot;&gt;equipos&lt;/span&gt;&lt;span style=&quot;background-color: initial; font-size: 18px;&quot;&gt;_2020&amp;nbsp;&lt;/span&gt;&lt;span style=&quot;background-color: initial; font-size: 20px;&quot;&gt;&amp;lt;&lt;/span&gt;&lt;font style=&quot;background-color: initial; font-size: 16px;&quot;&gt;==&amp;nbsp;&lt;/font&gt;&lt;font style=&quot;background-color: initial;&quot; face=&quot;Comic Sans MS&quot;&gt;&lt;font style=&quot;font-size: 18px; background-color: initial;&quot;&gt;&lt;font style=&quot;font-size: 24px;&quot;&gt;σ&lt;/font&gt;&lt;span style=&quot;color: rgb(51, 51, 51); font-size: 12px;&quot;&gt;&amp;nbsp;&lt;/span&gt;&lt;/font&gt;&lt;/font&gt;&lt;font style=&quot;background-color: initial;&quot; face=&quot;Comic Sans MS&quot;&gt;&lt;font style=&quot;background-color: initial; font-size: 18px;&quot;&gt;&lt;span style=&quot;font-size: 12px;&quot;&gt;(&lt;/span&gt;&lt;span style=&quot;color: rgb(51, 51, 51); font-size: 12px;&quot;&gt;fecha &amp;gt;= &quot;01/01/2020&quot;) and&amp;nbsp;&lt;/span&gt;&lt;/font&gt;&lt;/font&gt;&lt;font style=&quot;background-color: initial;&quot; face=&quot;Comic Sans MS&quot;&gt;&lt;font style=&quot;background-color: initial; font-size: 18px;&quot;&gt;&lt;span style=&quot;color: rgb(51, 51, 51); font-size: 12px;&quot;&gt;(&lt;/span&gt;&lt;/font&gt;&lt;/font&gt;&lt;span style=&quot;background-color: initial; color: rgb(51, 51, 51);&quot;&gt;fecha &amp;lt;= &quot;31/12/&lt;/span&gt;&lt;span style=&quot;color: rgb(51, 51, 51);&quot;&gt;2020&lt;/span&gt;&lt;span style=&quot;background-color: initial; color: rgb(51, 51, 51);&quot;&gt;&quot;)&lt;/span&gt;&lt;font style=&quot;background-color: initial;&quot; face=&quot;Comic Sans MS&quot;&gt;&lt;font style=&quot;background-color: initial; font-size: 18px;&quot;&gt;&lt;span style=&quot;color: rgb(51, 51, 51); font-size: 12px;&quot;&gt;&amp;nbsp;&lt;/span&gt;&lt;/font&gt;&lt;/font&gt;&lt;font style=&quot;background-color: initial;&quot; face=&quot;Comic Sans MS&quot;&gt;&lt;font style=&quot;font-size: 18px; background-color: initial;&quot;&gt;(&amp;nbsp;&lt;/font&gt;&lt;/font&gt;&lt;span style=&quot;background-color: initial; font-size: 18px;&quot;&gt;Equipo |x|&amp;nbsp;&lt;/span&gt;&lt;span style=&quot;background-color: initial; font-size: 18px;&quot;&gt;Inscripcion&amp;nbsp;&lt;/span&gt;&lt;span style=&quot;background-color: initial; font-size: 18px;&quot;&gt;|x|&amp;nbsp;&lt;/span&gt;&lt;font style=&quot;background-color: initial;&quot;&gt;&lt;font style=&quot;font-size: 18px; background-color: initial;&quot;&gt;TorneoPesca&lt;/font&gt;&lt;/font&gt;&lt;span style=&quot;font-size: 18px; background-color: initial;&quot;&gt;&amp;nbsp;&lt;/span&gt;&lt;span style=&quot;background-color: initial; font-size: 18px;&quot;&gt;)&lt;/span&gt;&lt;/div&gt;&lt;div&gt;&lt;font style=&quot;background-color: initial;&quot; face=&quot;Comic Sans MS&quot;&gt;&lt;font style=&quot;font-size: 24px; background-color: initial;&quot;&gt;π&lt;/font&gt;&lt;font style=&quot;font-size: 18px; background-color: initial;&quot;&gt;&amp;nbsp;&lt;/font&gt;&lt;/font&gt;&lt;span style=&quot;color: rgb(51, 51, 51);&quot;&gt;nombreE, descripcionE&lt;/span&gt;&lt;font style=&quot;background-color: initial;&quot; face=&quot;Comic Sans MS&quot;&gt;&lt;span style=&quot;background-color: initial; color: rgb(51, 51, 51);&quot;&gt;&lt;span style=&quot;font-size: 18px;&quot;&gt;&amp;nbsp;&lt;/span&gt;&lt;/span&gt;&lt;/font&gt;&lt;font style=&quot;background-color: initial;&quot; face=&quot;Comic Sans MS&quot;&gt;&lt;font style=&quot;font-size: 18px; background-color: initial;&quot;&gt;(&amp;nbsp;&lt;/font&gt;&lt;/font&gt;&lt;span style=&quot;font-size: 18px;&quot;&gt;inscripcion_2019&amp;nbsp;&lt;/span&gt;&lt;span style=&quot;background-color: initial; font-size: 18px;&quot;&gt;&amp;nbsp;&lt;/span&gt;&lt;span style=&quot;background-color: initial; font-size: 18px;&quot;&gt;-&amp;nbsp;&lt;/span&gt;&lt;span style=&quot;font-size: 18px;&quot;&gt;inscripcion_2020&amp;nbsp;&lt;/span&gt;&lt;span style=&quot;background-color: initial; font-size: 18px;&quot;&gt;&amp;nbsp;&lt;/span&gt;&lt;font style=&quot;background-color: initial;&quot; face=&quot;Comic Sans MS&quot;&gt;&lt;font style=&quot;font-size: 18px; background-color: initial;&quot;&gt;)&lt;/font&gt;&lt;/font&gt;&lt;font style=&quot;background-color: initial;&quot; face=&quot;Comic Sans MS&quot;&gt;&lt;font style=&quot;font-size: 18px; background-color: initial;&quot;&gt;&amp;nbsp;&lt;/font&gt;&lt;/font&gt;&lt;span style=&quot;background-color: initial; font-size: 18px;&quot;&gt;)&lt;/span&gt;&lt;/div&gt;&lt;/div&gt;" style="text;whiteSpace=wrap;html=1;verticalAlign=middle;fontFamily=Comic Sans MS;" vertex="1" parent="1">
          <mxGeometry x="3225" y="2080" width="1200" height="100" as="geometry" />
        </mxCell>
        <mxCell id="K4xo6NbHVVqP134mh9-v-61" value="&lt;div style=&quot;&quot;&gt;&lt;div&gt;&lt;span style=&quot;font-size: 18px; background-color: initial;&quot;&gt;laguna_brava&amp;nbsp;&lt;/span&gt;&lt;span style=&quot;background-color: initial; font-size: 20px;&quot;&gt;&amp;lt;&lt;/span&gt;&lt;font style=&quot;background-color: initial; font-size: 16px;&quot;&gt;==&lt;/font&gt;&lt;span style=&quot;background-color: initial; font-size: 18px;&quot;&gt;&amp;nbsp;&lt;/span&gt;&lt;span style=&quot;background-color: initial; font-size: 24px;&quot;&gt;σ&amp;nbsp;&lt;/span&gt;&lt;span style=&quot;background-color: initial; color: rgb(51, 51, 51);&quot;&gt;nombreL = &quot;Laguna Brava&quot;&lt;/span&gt;&lt;/div&gt;&lt;div&gt;&lt;span style=&quot;background-color: initial; font-size: 18px;&quot;&gt;inscripcion_laguna_brava&amp;nbsp;&lt;/span&gt;&lt;span style=&quot;background-color: initial; font-size: 20px;&quot;&gt;&amp;lt;&lt;/span&gt;&lt;font style=&quot;background-color: initial; font-size: 16px;&quot;&gt;==&lt;/font&gt;&lt;span style=&quot;background-color: initial; font-size: 18px;&quot;&gt;&amp;nbsp;&lt;/span&gt;&lt;span style=&quot;color: rgb(51, 51, 51); background-color: initial;&quot;&gt;codTorneo, codigoE, asistio, gano&lt;/span&gt;&lt;span style=&quot;background-color: initial; color: rgb(51, 51, 51);&quot;&gt;&amp;nbsp;&lt;/span&gt;&lt;font style=&quot;background-color: initial;&quot; face=&quot;Comic Sans MS&quot;&gt;&lt;font style=&quot;font-size: 18px; background-color: initial;&quot;&gt;(&amp;nbsp;&lt;/font&gt;&lt;/font&gt;&lt;span style=&quot;background-color: initial; font-size: 18px;&quot;&gt;Inscripcion |x|&amp;nbsp;&lt;/span&gt;&lt;font style=&quot;background-color: initial;&quot;&gt;&lt;font style=&quot;font-size: 18px; background-color: initial;&quot;&gt;TorneoPesca&lt;/font&gt;&lt;/font&gt;&lt;span style=&quot;background-color: initial; font-size: 18px;&quot;&gt;&amp;nbsp;&lt;/span&gt;&lt;span style=&quot;background-color: initial; font-size: 18px;&quot;&gt;|x| laguna_brava&amp;nbsp;&lt;/span&gt;&lt;span style=&quot;background-color: initial; font-size: 18px;&quot;&gt;)&lt;/span&gt;&lt;/div&gt;&lt;div&gt;&lt;span style=&quot;background-color: initial; font-size: 18px;&quot;&gt;asistio_o_gano&amp;nbsp;&lt;/span&gt;&lt;span style=&quot;background-color: initial; font-size: 20px;&quot;&gt;&amp;lt;&lt;/span&gt;&lt;font style=&quot;background-color: initial; font-size: 16px;&quot;&gt;==&amp;nbsp;&lt;/font&gt;&lt;font style=&quot;background-color: initial;&quot; face=&quot;Comic Sans MS&quot;&gt;&lt;font style=&quot;font-size: 18px; background-color: initial;&quot;&gt;&lt;font style=&quot;font-size: 24px;&quot;&gt;σ&lt;/font&gt;&lt;span style=&quot;color: rgb(51, 51, 51); font-size: 12px;&quot;&gt;&amp;nbsp;&lt;/span&gt;&lt;/font&gt;&lt;/font&gt;&lt;font style=&quot;background-color: initial;&quot; face=&quot;Comic Sans MS&quot;&gt;&lt;font style=&quot;background-color: initial; font-size: 18px;&quot;&gt;&lt;span style=&quot;font-size: 12px;&quot;&gt;( asistio = true&amp;nbsp;&lt;/span&gt;&lt;/font&gt;&lt;/font&gt;&lt;span style=&quot;background-color: initial; color: rgb(51, 51, 51);&quot;&gt;) or ( gano = true )&lt;/span&gt;&lt;font style=&quot;background-color: initial;&quot; face=&quot;Comic Sans MS&quot;&gt;&lt;font style=&quot;background-color: initial; font-size: 18px;&quot;&gt;&lt;span style=&quot;color: rgb(51, 51, 51); font-size: 12px;&quot;&gt;&amp;nbsp;&lt;/span&gt;&lt;/font&gt;&lt;/font&gt;&lt;font style=&quot;background-color: initial;&quot; face=&quot;Comic Sans MS&quot;&gt;&lt;font style=&quot;font-size: 18px; background-color: initial;&quot;&gt;( i&lt;/font&gt;&lt;/font&gt;&lt;span style=&quot;font-size: 18px;&quot;&gt;nscripcion_laguna_brava&lt;/span&gt;&lt;span style=&quot;background-color: initial; font-size: 18px;&quot;&gt;&amp;nbsp;&lt;/span&gt;&lt;span style=&quot;background-color: initial; font-size: 18px;&quot;&gt;)&lt;/span&gt;&lt;/div&gt;&lt;/div&gt;&lt;div style=&quot;&quot;&gt;&lt;font face=&quot;Comic Sans MS&quot;&gt;&lt;font style=&quot;background-color: initial; font-size: 24px;&quot;&gt;π&lt;/font&gt;&lt;font style=&quot;background-color: initial; font-size: 18px;&quot;&gt;&amp;nbsp;&lt;/font&gt;&lt;span style=&quot;background-color: initial; color: rgb(51, 51, 51);&quot;&gt;DNI, nombre, apellido, ciudad, email&amp;nbsp;&lt;/span&gt;&lt;span style=&quot;background-color: initial; font-size: 18px;&quot;&gt;( Integrante |x| Equipo |x|&amp;nbsp;&lt;/span&gt;&lt;/font&gt;&lt;span style=&quot;font-size: 18px;&quot;&gt;asistio_o_gano&lt;/span&gt;&lt;font face=&quot;Comic Sans MS&quot;&gt;&lt;span style=&quot;background-color: initial; font-size: 18px;&quot;&gt;&amp;nbsp;&lt;/span&gt;&lt;span style=&quot;background-color: initial; font-size: 18px;&quot;&gt;)&lt;/span&gt;&lt;/font&gt;&lt;/div&gt;" style="text;whiteSpace=wrap;html=1;verticalAlign=middle;fontFamily=Comic Sans MS;" vertex="1" parent="1">
          <mxGeometry x="3225" y="2275" width="1200" height="125" as="geometry" />
        </mxCell>
        <mxCell id="K4xo6NbHVVqP134mh9-v-62" value="" style="rounded=0;whiteSpace=wrap;html=1;fillColor=#FFCCE6;strokeColor=#000000;" vertex="1" parent="1">
          <mxGeometry x="3185" y="680" width="40" height="1760" as="geometry" />
        </mxCell>
        <mxCell id="K4xo6NbHVVqP134mh9-v-63" value="" style="rounded=0;whiteSpace=wrap;html=1;fillColor=#FFCCE6;strokeColor=#000000;" vertex="1" parent="1">
          <mxGeometry x="4425" y="680" width="40" height="1760" as="geometry" />
        </mxCell>
      </root>
    </mxGraphModel>
  </diagram>
</mxfile>
